<?xml version="1.0" encoding="utf-8"?>
<!-- Generator: Adobe Illustrator 21.0.0, SVG Export Plug-In . SVG Version: 6.00 Build 0)  -->
<svg version="1.1" id="Capa_1" xmlns="http://www.w3.org/2000/svg" xmlns:xlink="http://www.w3.org/1999/xlink" fill="#287AC3" x="0px" y="0px"
	 viewBox="0 0 512 512" style="enable-background:new 0 0 512 512;" xml:space="preserve">
<style type="text/css">
	.st0{fill:none;stroke:#287AC3;stroke-width:19;stroke-miterlimit:10;}
</style>
<g>
	<g>
		<path d="M482,0H126c-16.5,0-30,13.5-30,30v34c0,5.5,4.5,10,10,10s10-4.5,10-10V30c0-5.5,4.5-10,10-10h356c5.5,0,10,4.5,10,10v452
			c0,5.5-4.5,10-10,10H126c-5.5,0-10-4.5-10-10v-32.3c0-5.5-4.5-10-10-10s-10,4.5-10,10V482c0,16.5,13.5,30,30,30h356
			c16.5,0,30-13.5,30-30V30C512,13.5,498.5,0,482,0z"/>
	</g>
</g>
<g>
	<g>
		<path d="M433.9,386h-240c-5.5,0-10,4.5-10,10s4.5,10,10,10h240c5.5,0,10-4.5,10-10S439.4,386,433.9,386z"/>
	</g>
</g>
<g>
	<g>
		<path d="M441,440.9c-1.9-1.9-4.4-2.9-7.1-2.9c-2.6,0-5.2,1.1-7.1,2.9c-1.9,1.9-2.9,4.4-2.9,7.1s1.1,5.2,2.9,7.1
			c1.9,1.9,4.4,2.9,7.1,2.9c2.6,0,5.2-1.1,7.1-2.9c1.9-1.9,2.9-4.4,2.9-7.1S442.8,442.8,441,440.9z"/>
	</g>
</g>
<g>
	<g>
		<path d="M393,438H193.9c-5.5,0-10,4.5-10,10s4.5,10,10,10H393c5.5,0,10-4.5,10-10S398.5,438,393,438z"/>
	</g>
</g>
<g>
	<g>
		<path d="M264,40c-85.8,0-155.7,69.8-155.7,155.7c0,49.6,23.3,93.9,59.6,122.4L51.9,434.2c-7.3,7.3-19.1,7.3-26.4,0
			C21.9,430.7,20,426,20,421s1.9-9.7,5.5-13.2l59.4-59.4c3.9-3.9,3.9-10.2,0-14.1c-3.9-3.9-10.2-3.9-14.1,0l-59.4,59.4
			C4,401,0,410.7,0,421c0,10.3,4,20,11.3,27.3c7.5,7.5,17.4,11.3,27.3,11.3s19.8-3.8,27.3-11.3l118.7-118.7
			c23.2,13.8,50.3,21.7,79.3,21.7c85.8,0,155.7-69.8,155.7-155.7S349.8,40,264,40z M264,331.4c-74.8,0-135.7-60.9-135.7-135.7
			C128.3,120.9,189.2,60,264,60s135.7,60.9,135.7,135.7S338.8,331.4,264,331.4z"/>
	</g>
</g>
<g>
	<g>
		<path d="M116.3,302.8c-1.9-1.9-4.4-2.9-7.1-2.9c-2.6,0-5.2,1.1-7.1,2.9c-1.9,1.9-2.9,4.4-2.9,7.1c0,2.6,1.1,5.2,2.9,7.1
			c1.9,1.9,4.4,2.9,7.1,2.9c2.6,0,5.2-1.1,7.1-2.9c1.9-1.9,2.9-4.4,2.9-7.1C119.2,307.3,118.2,304.7,116.3,302.8z"/>
	</g>
</g>
<circle fill="#287AC3" class="st0" cx="264.1" cy="195.7" r="96.6"/>
</svg>
