<svg id="Layer_1" data-name="Layer 1" xmlns="http://www.w3.org/2000/svg" viewBox="0 0 438.87 319.33"><defs><style>.cls-1,.cls-2{fill:#3c6695;}.cls-2,.cls-3{stroke:#3c6695;stroke-miterlimit:10;}.cls-2{stroke-width:0.5px;}.cls-3{fill:none;stroke-width:15px;}</style></defs><title>license2</title><path class="cls-1" d="M62.42,151.63H371.18c4.1,0,7.42-3.58,7.42-8s-3.32-8-7.42-8H62.42c-4.1,0-7.42,3.58-7.42,8S58.32,151.63,62.42,151.63Z" transform="translate(0 -4.17)"/><path class="cls-2" d="M125.9,109.63H298.7a8,8,0,1,0,0-16H125.9a8,8,0,1,0,0,16Z" transform="translate(0 -4.17)"/><path class="cls-1" d="M62.33,194.53H371.17a8,8,0,0,0,0-16H62.33a7.73,7.73,0,0,0-7.43,8,7.65,7.65,0,0,0,7.24,8Z" transform="translate(0 -4.17)"/><path class="cls-1" d="M308.9,228.53c0-4.42-2.61-8-5.83-8H60.73c-3.22,0-5.83,3.58-5.83,8s2.61,8,5.83,8H303.07C306.29,236.53,308.9,232.95,308.9,228.53Z" transform="translate(0 -4.17)"/><path class="cls-3" d="M208.17,316H21.3A13.8,13.8,0,0,1,7.5,302.2h0V25.47a13.8,13.8,0,0,1,13.8-13.8H417.57a13.8,13.8,0,0,1,13.8,13.8V302.2a13.8,13.8,0,0,1-13.8,13.8H197.5" transform="translate(0 -4.17)"/><path class="cls-1" d="M375.52,221.11a10.49,10.49,0,1,0,3.08,7.42A10.55,10.55,0,0,0,375.52,221.11Z" transform="translate(0 -4.17)"/><path class="cls-1" d="M74.82,94.21a10.49,10.49,0,1,0,3.08,7.42A10.55,10.55,0,0,0,74.82,94.21Z" transform="translate(0 -4.17)"/></svg>