<svg fill="#287AC3" id="Layer_1" data-name="Layer 1" xmlns="http://www.w3.org/2000/svg" viewBox="0 0 462.54 512"><defs><style>.cls-1{fill:#287AC3;stroke:#287AC3;stroke-linecap:round;stroke-miterlimit:10;stroke-width:18px;}</style></defs><title>ship</title><path d="M254.52,407A10.2,10.2,0,0,0,246,417.25v.05a9.71,9.71,0,0,0,6,9.11,10.06,10.06,0,0,0,14-9.24v-.24A10,10,0,0,0,254.52,407Z" transform="translate(-24.73)"/><path d="M477.27,492a41.21,41.21,0,0,1-35.52-20.43,10.15,10.15,0,0,0-5.51-4.6,10,10,0,0,0-11.88,4.48,41.22,41.22,0,0,1-32.1,20.38,0,0,0,0,1,0-.05c19-36.85,36.24-83.53,50.07-126.38a9.91,9.91,0,0,0,.46-1.43c4.59-14.28,8.81-28.11,12.58-41,.08-.24.15-.48.21-.72,4.43-15.14,8.25-28.93,11.37-40.56a10,10,0,0,0-2.59-9.66c-25-25-55-49.53-86.66-71.5a11.89,11.89,0,0,1-5.14-9.4l-2.19-70.83A22.33,22.33,0,0,0,348.13,98.4H306.36a0,0,0,0,1,0,0L302,51.87c0-.23,0-.45-.06-.67l-3.08-33.37C297.94,7.66,289.9,0,280.17,0H231.83c-9.72,0-17.76,7.66-18.71,17.83L210,51.2c0,.22,0,.44-.06.65l-4.3,46.5a0,0,0,0,1,0,0H163.87a22.32,22.32,0,0,0-22.22,21.92l-2.19,70.83a11.89,11.89,0,0,1-5.14,9.4c-31.7,22-61.7,46.53-86.66,71.5a10,10,0,0,0-2.59,9.66c3.1,11.58,6.9,25.3,11.31,40.35a9.94,9.94,0,0,0,.28,1c3.77,12.86,8,26.67,12.56,40.93a9.82,9.82,0,0,0,.48,1.48c13.84,42.85,31.05,89.53,50.07,126.36a0,0,0,0,1,0,.05,41.21,41.21,0,0,1-32.1-20.38,10.15,10.15,0,0,0-14.9-2.94,7.75,7.75,0,0,0-2.21,2.59A41.21,41.21,0,0,1,34.9,492a10,10,0,1,0-.17,20A61.3,61.3,0,0,0,79,493a0,0,0,0,1,.05,0,60.93,60.93,0,0,0,58.92,17.15l.69-.18a61.45,61.45,0,0,0,28.85-17,0,0,0,0,1,.05,0A61.05,61.05,0,0,0,256,493a0,0,0,0,1,.05,0,61.06,61.06,0,0,0,88.46,0,0,0,0,0,1,.05,0A61.44,61.44,0,0,0,373.17,510a9.81,9.81,0,0,0,1.06.27A60.94,60.94,0,0,0,433,493a0,0,0,0,1,.05,0A61.29,61.29,0,0,0,477,512a10.19,10.19,0,0,0,10.22-8.67A10,10,0,0,0,477.27,492ZM358.2,211.44A642.53,642.53,0,0,1,440.74,277a12.35,12.35,0,0,1,3.41,12.25l-.52,1.89a7.44,7.44,0,0,1-11.83,3.83c-41.67-33.44-105.92-78.49-154.69-103A20.12,20.12,0,0,1,266,174h0a9,9,0,0,1,12.82-8.14,621.86,621.86,0,0,1,77.69,44.47A10,10,0,0,0,358.2,211.44ZM240.23,20h31.56a7.91,7.91,0,0,1,7.88,7.18l.62,6.67a7.91,7.91,0,0,1-7.88,8.64H239.61a7.91,7.91,0,0,1-7.88-8.64l.62-6.67A7.91,7.91,0,0,1,240.23,20ZM237.4,62.49h37.21a9.12,9.12,0,0,1,9.09,8.28l1.63,17.65a9.12,9.12,0,0,1-9.09,10H235.77a9.12,9.12,0,0,1-9.09-10l1.63-17.65A9.12,9.12,0,0,1,237.4,62.49Zm-75.76,58.44a2.45,2.45,0,0,1,2.23-2.54H348.13a2.45,2.45,0,0,1,2.23,2.54L351.72,165a10.12,10.12,0,0,1-15.27,9c-25.87-15.37-51.93-28.51-76.53-38.31l-.09,0-.14-.06-.26-.09-.59-.2-.36-.09-.57-.14-.48-.07L257,135a9.93,9.93,0,0,0-1.95,0l-.47.07-.48.07-.57.14-.36.09-.59.2-.26.09-.14.06-.09,0c-24.6,9.8-50.66,22.94-76.53,38.31a10.12,10.12,0,0,1-15.27-9ZM67.85,289.23A12.35,12.35,0,0,1,71.26,277a642.43,642.43,0,0,1,82.51-65.53,10,10,0,0,0,1.73-1.16,621.76,621.76,0,0,1,77.69-44.47A9,9,0,0,1,246,174h0a20.12,20.12,0,0,1-11.11,18c-48.77,24.51-113,69.56-154.69,103a7.44,7.44,0,0,1-11.83-3.83ZM376.44,478.72a9.63,9.63,0,0,1-14.94,2.91,40.77,40.77,0,0,1-8.33-10.18l-.06-.09c-.11-.18-.23-.36-.35-.54l-.2-.3c-.12-.16-.24-.31-.37-.46l-.27-.32-.34-.35-.37-.36-.3-.25c-.16-.13-.31-.26-.48-.38l-.28-.19c-.18-.12-.36-.25-.55-.36l-.09-.06-.24-.12-.53-.27-.43-.18-.45-.18-.51-.16-.4-.11-.56-.12-.39-.07-.55-.07-.43,0h-1l-.45,0-.53.06-.41.07-.54.12-.41.11-.5.16-.47.18-.42.18-.54.28-.24.12-.09.06c-.19.11-.37.23-.55.36l-.28.19c-.16.12-.32.25-.48.38l-.3.25-.37.36-.34.35-.27.32c-.13.15-.25.3-.37.46l-.2.3c-.12.18-.24.36-.35.54l-.06.09a41.1,41.1,0,0,1-71.19,0A10,10,0,0,0,252.78,467a10.15,10.15,0,0,0-5.51,4.6,41.1,41.1,0,0,1-71.12-.12l-.06-.09c-.11-.19-.23-.37-.36-.55l-.19-.28c-.12-.16-.25-.32-.38-.47l-.26-.31c-.11-.12-.23-.24-.35-.36l-.36-.35-.31-.26c-.16-.13-.31-.26-.48-.38l-.29-.19-.55-.36-.09-.06-.24-.12-.54-.27-.42-.18-.46-.18-.5-.16-.41-.12-.54-.12-.41-.07-.52-.06-.46,0h-1l-.41,0-.57.07-.37.06-.58.13-.37.1-.54.17-.43.17-.45.19-.51.26-.26.13-.09.06-.53.34-.3.21c-.16.11-.3.24-.46.36l-.32.27-.35.34c-.12.12-.25.24-.36.37l-.25.3c-.13.16-.26.31-.38.48l-.2.29c-.12.18-.24.36-.35.55l-.06.09a40.78,40.78,0,0,1-8.33,10.17,9.63,9.63,0,0,1-14.94-2.91c-15.6-31-30-68.72-42.08-105a14.09,14.09,0,0,1,4.08-15.07l1.52-1.33c6-5.23,12.33-10.58,18.93-15.92a10.2,10.2,0,0,0,2.58-13,10,10,0,0,0-14.92-2.73c-6.89,5.57-13.55,11.16-19.78,16.62h0a1.72,1.72,0,0,1-2.77-.79q-1.57-5.07-3.07-10a13.29,13.29,0,0,1,4.26-14.09c36.81-30.43,97-73.38,144.87-99.79a11.35,11.35,0,0,1,16.82,10c0,41.1,0,137.19,0,160.37a10.18,10.18,0,0,0,8.5,10.18,10,10,0,0,0,11.5-9.89V227.6a11.37,11.37,0,0,1,16.86-10C330.7,244,390.89,287,427.69,317.39A13.29,13.29,0,0,1,432,331.48q-1.5,4.95-3.07,10a1.72,1.72,0,0,1-2.77.79h0c-12.9-11.31-27-22.7-43.19-34.82a10,10,0,0,0-12,16c15.54,11.65,29.67,23,42,33.86l1.51,1.33a14.09,14.09,0,0,1,4.08,15.07C406.39,410,392,447.74,376.44,478.72Z" transform="translate(-24.73)"/><path d="M144.28,311.42a10,10,0,1,0-13.69,13,10,10,0,0,0,11.95-2.3l0,0A9.65,9.65,0,0,0,144.28,311.42Z" transform="translate(-24.73)"/><line class="cls-1" x1="336.77" y1="51.5" x2="379.52" y2="94.25"/><line class="cls-1" x1="379.52" y1="94.25" x2="449.52" y2="24.25"/></svg>