<svg id="Capa_1" data-name="Capa 1" xmlns="http://www.w3.org/2000/svg" viewBox="0 0 333.01 334.88"><defs><style>.cls-1{fill:none;stroke:#000;stroke-miterlimit:10;stroke-width:15px;}</style></defs><title>wallet</title><path d="M305.89,159a10.72,10.72,0,0,1,3.46,2,4.4,4.4,0,0,1,1.19,1.66c.12,0,.24,0,.35,0,.46.11.92.22,1.38.31l.83.13c.82.08,1.63.13,2.46.13.12,0,.23,0,.35,0a5.62,5.62,0,0,1,.88-.33c.07-.07,2.32,1,2.39.92.05-1.88-3.94-3.28-2.4-4.63.13-.31-.1-1.56.09-1.84l.07-1.15V82.37a32.13,32.13,0,0,0-32.13-32.13H263l-22.27-40a19.28,19.28,0,0,0-26.22-7.49L129.09,50.23H33.63A32.13,32.13,0,0,0,1.49,82.37V303a32.13,32.13,0,0,0,32.13,32.13H284.81A32.13,32.13,0,0,0,316.94,303V238.53H306.06a5.68,5.68,0,0,1-.76-.06,5.35,5.35,0,0,1-1.21.44V303a19.3,19.3,0,0,1-19.28,19.28H33.63A19.28,19.28,0,0,1,14.35,303V82.37A19.28,19.28,0,0,1,33.63,63.09H106L75.16,80.23H37.89a6.59,6.59,0,0,0-6.62,5.62,6.43,6.43,0,0,0,6.38,7.24H304.09v63.2h0c.07.8.33,2.33-1,2.44A4.42,4.42,0,0,1,305.89,159ZM101.61,80.22l119.2-66.28a6.55,6.55,0,0,1,8.73,2.49L265,80.22Zm178.11,0L270.2,63.09h14.61a19.24,19.24,0,0,1,19.07,17.14Z" transform="translate(-1.49 -0.28)"/><path d="M333,194.8c0,.16-.09.32-.14.47,0,1.17.05,2.36.14,3.55Z" transform="translate(-1.49 -0.28)"/><path d="M276.66,195.94a14.19,14.19,0,1,0-15.92,15.91A14.22,14.22,0,0,0,276.66,195.94Z" transform="translate(-1.49 -0.28)"/><path class="cls-1" d="M256,165.54h60a9.5,9.5,0,0,1,9.5,9.5v47a9.5,9.5,0,0,1-9.5,9.5H256a33,33,0,0,1-33-33v0A33,33,0,0,1,256,165.54Z"/></svg>