<svg fill="#287AC3" id="Layer_1" data-name="Layer 1" xmlns="http://www.w3.org/2000/svg" viewBox="0 0 443.73 512"><defs><style>.cls-1{fill:none;stroke:#287AC3;stroke-linecap:round;stroke-miterlimit:10;stroke-width:14px;}</style></defs><title>exam</title><path d="M375.45,320.69a8.54,8.54,0,0,0-8.53-8.53h-51.2a8.53,8.53,0,0,0,0,17.07h51.2A8.54,8.54,0,0,0,375.45,320.69Z" transform="translate(-17.05 -4.96)"/><path d="M341.32,98.82V56.45a8.73,8.73,0,0,0-8-8.81,8.54,8.54,0,0,0-9.11,8.51V98.82a42.67,42.67,0,0,0,42.67,42.67h76.8V511.82c7.51,8.59,17.07,3.36,17.07-4.08V133a8.53,8.53,0,0,0-8.53-8.53H366.92A25.6,25.6,0,0,1,341.32,98.82Z" transform="translate(-17.05 -4.96)"/><path d="M366.92,209.76H298.65a8.53,8.53,0,0,0,0,17.07h68.27a8.53,8.53,0,0,0,0-17.07Z" transform="translate(-17.05 -4.96)"/><path d="M273.05,218.29a8.54,8.54,0,0,0-8.53-8.53h-51.2a8.53,8.53,0,1,0,0,17.07h51.2A8.54,8.54,0,0,0,273.05,218.29Z" transform="translate(-17.05 -4.96)"/><path d="M213.32,175.62h85.33a8.53,8.53,0,0,0,0-17.07H213.32a8.53,8.53,0,1,0,0,17.07Z" transform="translate(-17.05 -4.96)"/><path d="M264.52,278h85.33a8.53,8.53,0,0,0,0-17.07H264.52a8.53,8.53,0,1,0,0,17.07Z" transform="translate(-17.05 -4.96)"/><path d="M281.58,312.16H213.32a8.53,8.53,0,1,0,0,17.07h68.27a8.53,8.53,0,1,0,0-17.07Z" transform="translate(-17.05 -4.96)"/><path d="M281.58,363.36H213.32a8.53,8.53,0,1,0,0,17.07h68.27a8.53,8.53,0,1,0,0-17.07Z" transform="translate(-17.05 -4.96)"/><path d="M451.4,499.89H59.72a25.63,25.63,0,0,1-25.6-25.6V47.62A25.63,25.63,0,0,1,59.72,22H329.25l82.83,82.83a8.53,8.53,0,0,0,12.07-12.07L338.82,7.46a8.51,8.51,0,0,0-6-2.5H59.72A42.71,42.71,0,0,0,17.05,47.62V474.29A42.72,42.72,0,0,0,59.72,517H451.4a8.53,8.53,0,0,0,0-17.07Z" transform="translate(-17.05 -4.96)"/><path d="M281.58,414.56H213.32a8.53,8.53,0,1,0,0,17.07h68.27a8.53,8.53,0,1,0,0-17.07Z" transform="translate(-17.05 -4.96)"/><path d="M170.65,167.09a8.54,8.54,0,0,0-8.53-8.53h-51.2a8.54,8.54,0,0,0-8.53,8.53v51.2a8.54,8.54,0,0,0,8.53,8.53h51.2a8.54,8.54,0,0,0,8.53-8.53Zm-17.07,42.67H119.45V175.62h34.13Z" transform="translate(-17.05 -4.96)"/><path d="M110.92,431.62h51.2a8.54,8.54,0,0,0,8.53-8.53v-51.2a8.54,8.54,0,0,0-8.53-8.53h-51.2a8.54,8.54,0,0,0-8.53,8.53v51.2A8.54,8.54,0,0,0,110.92,431.62Zm8.53-51.2h34.13v34.13H119.45Z" transform="translate(-17.05 -4.96)"/><line class="cls-1" x1="92.33" y1="256.58" x2="143.24" y2="307.48"/><line class="cls-1" x1="141.79" y1="257.11" x2="90.88" y2="308.02"/><path d="M342.52,364.11a10.49,10.49,0,1,0,3.08,7.42A10.55,10.55,0,0,0,342.52,364.11Z" transform="translate(-17.05 -4.96)"/><path d="M230.52,263a10.49,10.49,0,1,0,3.08,7.42A10.55,10.55,0,0,0,230.52,263Z" transform="translate(-17.05 -4.96)"/></svg>